Coordinates
version=1
nRows=49
nColumns=12
inDegrees=yes

Units are S.I. units (second, meters, Newtons, ...)
Angles are in degrees

endheader
time	SC_y	SC_z	SC_x	AC_y	AC_z	AC_x	GH_y	GH_z	GH_yy	EL_x	PS_y
       0.0              -51.48         -1.301          79.07          30.54         -1.411           11.9          174.8          55.97         -130.1          57.88          129.9
   0.04649              -51.48           -1.3          79.07          30.54         -1.411          11.89          174.8          55.96         -130.1          57.88          129.9
   0.09298              -51.47         -1.299          79.07          30.54         -1.411          11.89          174.8          55.95         -130.1          57.87          129.9
    0.1395              -51.47         -1.298          79.06          30.54          -1.41          11.89          174.7          55.94         -130.1          57.87          129.9
     0.186              -51.46         -1.297          79.06          30.54          -1.41          11.89          174.7          55.93         -130.1          57.87          129.9
    0.2324              -51.46         -1.296          79.05          30.54          -1.41          11.88          174.7          55.92         -130.1          57.86          130.0
    0.2789              -51.45         -1.295          79.05          30.54         -1.409          11.88          174.7           55.9         -130.1          57.86          130.0
    0.3254              -51.44         -1.293          79.04          30.54         -1.409          11.88          174.7          55.89         -130.1          57.85          130.0
    0.3719              -51.43         -1.292          79.04          30.54         -1.408          11.87          174.7          55.87         -130.1          57.85          130.0
    0.4184              -51.43          -1.29          79.03          30.54         -1.408          11.87          174.7          55.86         -130.1          57.84          130.0
    0.4649              -51.42         -1.288          79.03          30.54         -1.407          11.86          174.6          55.84         -130.1          57.84          130.0
    0.5114              -51.41         -1.287          79.02          30.54         -1.407          11.86          174.6          55.82         -130.1          57.83          130.0
    0.5579               -51.4         -1.285          79.01          30.55         -1.406          11.86          174.6           55.8         -130.1          57.83          130.0
    0.6044              -51.38         -1.282           79.0          30.55         -1.405          11.85          174.6          55.78         -130.1          57.82          130.0
    0.6508              -51.37          -1.28           79.0          30.55         -1.405          11.85          174.6          55.76         -130.1          57.81          130.0
    0.6973              -51.36         -1.277          78.99          30.55         -1.404          11.84          174.5          55.73         -130.1           57.8          130.0
    0.7438              -51.34         -1.275          78.98          30.55         -1.403          11.83          174.5           55.7         -130.1           57.8          130.0
    0.7903              -51.33         -1.272          78.97          30.55         -1.402          11.83          174.5          55.67         -130.1          57.79          130.0
    0.8368              -51.31         -1.268          78.96          30.55         -1.401          11.82          174.5          55.64         -130.1          57.78          130.0
    0.8833              -51.29         -1.265          78.94          30.55           -1.4          11.81          174.4           55.6         -130.1          57.77          130.0
    0.9298              -51.27         -1.261          78.93          30.55         -1.398           11.8          174.4          55.56         -130.1          57.75          130.1
    0.9763              -51.25         -1.256          78.91          30.56         -1.397          11.79          174.3          55.52         -130.0          57.74          130.1
     1.023              -51.22         -1.252           78.9          30.56         -1.395          11.78          174.3          55.47         -130.0          57.72          130.1
     1.069              -51.19         -1.246          78.88          30.56         -1.394          11.77          174.2          55.42         -130.0          57.71          130.1
     1.116              -51.16          -1.24          78.86          30.56         -1.392          11.75          174.2          55.36         -130.0          57.69          130.1
     1.162              -51.13         -1.234          78.83          30.56          -1.39          11.74          174.1           55.3         -130.0          57.67          130.1
     1.209              -51.09         -1.226          78.81          30.57         -1.387          11.72          174.1          55.22         -130.0          57.64          130.2
     1.255              -51.04         -1.218          78.78          30.57         -1.385           11.7          174.0          55.14         -130.0          57.62          130.2
     1.302              -50.99         -1.209          78.74          30.57         -1.382          11.68          173.9          55.04         -130.0          57.59          130.2
     1.348              -50.94         -1.198           78.7          30.58         -1.378          11.65          173.8          54.94         -129.9          57.56          130.3
     1.395              -50.87         -1.186          78.66          30.58         -1.374          11.62          173.7          54.82         -129.9          57.52          130.3
     1.441               -50.8         -1.172          78.61          30.59          -1.37          11.59          173.5          54.68         -129.9          57.47          130.3
     1.488              -50.71         -1.155          78.55          30.59         -1.365          11.55          173.4          54.51         -129.9          57.42          130.4
     1.534              -50.61         -1.137          78.49           30.6         -1.359          11.51          173.2          54.33         -129.8          57.36          130.4
     1.581              -50.49         -1.115          78.41          30.61         -1.351          11.46          173.0          54.11         -129.8          57.29          130.5
     1.627              -50.36         -1.089          78.32          30.62         -1.343           11.4          172.8          53.85         -129.7          57.21          130.6
     1.674              -50.19         -1.058          78.21          30.63         -1.333          11.33          172.5          53.54         -129.7          57.12          130.7
      1.72               -50.0         -1.021          78.08          30.64         -1.321          11.24          172.1          53.17         -129.6           57.0          130.8
     1.767              -49.76        -0.9762          77.92          30.66         -1.307          11.14          171.7          52.73         -129.5          56.86          130.9
     1.813              -49.47        -0.9216          77.72          30.67          -1.29          11.01          171.2          52.18         -129.4          56.69          131.1
      1.86              -49.11        -0.8542          77.48           30.7         -1.268          10.85          170.5          51.51         -129.3          56.48          131.3
     1.906              -48.67        -0.7701          77.19          30.73         -1.241          10.65          169.7          50.67         -129.2          56.21          131.6
     1.953              -48.11        -0.6642          76.81          30.77         -1.207          10.41          168.7          49.62         -129.0          55.88          131.9
     1.999              -47.39        -0.5296          76.33          30.81         -1.164          10.09          167.5          48.27         -128.7          55.46          132.3
     2.046              -46.48        -0.3574          75.72          30.88         -1.109          9.691          165.8          46.56         -128.4          54.92          132.9
     2.092              -45.31        -0.1363          74.93          30.95         -1.038          9.174          163.7          44.35         -128.0          54.22          133.6
     2.138              -43.81         0.1461          73.93          31.05        -0.9473          8.515          161.1          41.54         -127.5          53.34          134.4
     2.185              -41.93         0.5012          72.67          31.18        -0.8335          7.686          157.7          37.99         -126.8          52.22          135.5
     2.231              -39.64         0.9339          71.13          31.33        -0.6948          6.675          153.6          33.68         -126.0          50.86          136.9
